PathFileType	3	(X/Y/Z)	random_1__view1_aligned.trc
DataRate	CameraRate	NumFrames	NumMarkers	Units	OrigDataRate	OrigDataStartFrame	OrigNumFrames
100.0	100.0	14	19	mm	100.0	1613	1930
Frame#	Time	pelvis			neck			head			hip_left			hip_right			knee_left			knee_right			ankle_left			ankle_right			heel_left			heel_right			toe_left			toe_right			shoulder_left			shoulder_right			elbow_left			elbow_right			wrist_left			wrist_right			
		X1	Y1	Z1	X2	Y2	Z2	X3	Y3	Z3	X4	Y4	Z4	X5	Y5	Z5	X6	Y6	Z6	X7	Y7	Z7	X8	Y8	Z8	X9	Y9	Z9	X10	Y10	Z10	X11	Y11	Z11	X12	Y12	Z12	X13	Y13	Z13	X14	Y14	Z14	X15	Y15	Z15	X16	Y16	Z16	X17	Y17	Z17	X18	Y18	Z18	X19	Y19	Z19	
1613	16.12000	20.851292	933.503243	311.283805	109.713595	1481.911649	300.844382	241.590167	1572.538334	237.362451	-10.269638	930.603294	237.122381	51.972472	936.403209	385.444999	108.124346	546.839047	90.067719	128.055097	517.348305	341.236274	43.178367	150.093210	49.108245	2.073254	132.689702	345.937153	7.542244	105.444022	58.665414	-38.368730	87.928857	349.182220	215.168599	63.475472	-3.547070	180.228295	65.549921	313.480677	17.979461	1445.066755	134.547184	151.029192	1400.046698	477.451930	80.133523	1165.111166	74.361209	154.496201	1111.300956	467.636723	215.789046	937.968964	28.155013	244.910840	905.688956	341.431221
1614	16.13000	19.491192	933.689931	311.979979	108.554448	1481.772999	301.211364	240.431674	1571.956763	237.467796	-11.777392	930.872693	237.884992	50.760061	936.507188	386.074703	105.557655	546.649063	91.255149	127.377408	517.654181	341.454946	41.816368	149.752112	50.547460	2.164015	132.834902	345.808630	6.327982	105.042239	60.276250	-38.239903	88.043919	348.976876	213.758064	63.321565	-2.701519	180.376165	65.669768	313.503254	17.375305	1444.463283	134.454978	150.573930	1400.046897	477.769636	84.539042	1164.395294	75.269064	153.835909	1111.684263	464.467232	222.494610	937.971449	31.465184	244.468349	908.040805	333.116124
1615	16.14000	18.131092	933.876618	312.676152	107.395301	1481.634350	301.578346	239.273181	1571.375192	237.573142	-13.285146	931.142092	238.647603	49.547650	936.611166	386.704407	102.990963	546.459079	92.442579	126.699719	517.960057	341.673619	40.454369	149.411014	51.986674	2.254777	132.980101	345.680107	5.113719	104.640455	61.887086	-38.111075	88.158981	348.771531	212.347528	63.167659	-1.855967	180.524034	65.789616	313.525832	16.771150	1443.859811	134.362771	150.118669	1400.047096	478.087341	88.944561	1163.679422	76.176919	153.175617	1112.067571	461.297740	229.200174	937.973933	34.775355	244.025857	910.392654	324.801026
1616	16.15000	16.770991	934.063306	313.372326	106.236153	1481.495700	301.945329	238.114688	1570.793620	237.678487	-14.792901	931.411491	239.410214	48.335239	936.715145	387.334111	100.424272	546.269096	93.630008	126.022030	518.265933	341.892291	39.092370	149.069916	53.425889	2.345539	133.125301	345.551584	3.899456	104.238671	63.497922	-37.982248	88.274043	348.566186	210.936992	63.013752	-1.010416	180.671904	65.909463	313.548409	16.166994	1443.256340	134.270564	149.663408	1400.047295	478.405047	93.350081	1162.963550	77.084774	152.515325	1112.450879	458.128249	235.905738	937.976418	38.085526	243.583366	912.744502	316.485928
1617	16.16000	15.946009	934.427768	313.435804	105.170317	1481.553405	302.035345	236.841906	1570.575015	237.442609	-15.747526	931.797636	239.532745	47.639899	937.057924	387.338536	99.092232	546.396821	93.953787	125.776869	518.673314	341.971956	38.653693	149.039215	54.090503	2.515050	133.413161	345.477348	3.572044	104.173878	64.337533	-37.806199	88.559079	348.438316	210.351613	63.085330	-0.989104	180.824442	66.090100	313.534965	15.350447	1443.248984	134.347211	149.262738	1400.143077	478.287921	94.310675	1163.138963	78.007466	152.402245	1112.796332	455.547895	237.117738	938.567499	40.525509	243.484252	915.297780	310.456246
1618	16.17000	15.121026	934.792230	313.499282	104.104481	1481.611110	302.125361	235.569124	1570.356410	237.206731	-16.702151	932.183780	239.655277	46.944559	937.400704	387.342960	97.760191	546.524546	94.277565	125.531708	519.080694	342.051620	38.215016	149.008515	54.755117	2.684560	133.701022	345.403111	3.244632	104.109085	65.177144	-37.630150	88.844116	348.310446	209.766234	63.156908	-0.967793	180.976980	66.270737	313.521521	14.533900	1443.241629	134.423858	148.862069	1400.238858	478.170796	95.271270	1163.314377	78.930159	152.289164	1113.141785	452.967542	238.329738	939.158580	42.965492	243.385138	917.851058	304.426564
1619	16.18000	14.296043	935.156692	313.562760	103.038645	1481.668815	302.215378	234.296342	1570.137805	236.970854	-17.656776	932.569924	239.777809	46.249218	937.743484	387.347385	96.428151	546.652271	94.601343	125.286548	519.488075	342.131284	37.776339	148.977815	55.419731	2.854071	133.988882	345.328875	2.917219	104.044292	66.016754	-37.454101	89.129152	348.182575	209.180855	63.228486	-0.946482	181.129518	66.451375	313.508077	13.717354	1443.234273	134.500505	148.461400	1400.334640	478.053671	96.231865	1163.489790	79.852851	152.176084	1113.487238	450.387189	239.541738	939.749660	45.405475	243.286024	920.404335	298.396882
1620	16.19000	13.471061	935.521154	313.626238	101.972809	1481.726520	302.305394	233.023560	1569.919200	236.734976	-18.611401	932.956068	239.900341	45.553878	938.086263	387.351809	95.096110	546.779996	94.925122	125.041387	519.895455	342.210948	37.337662	148.947114	56.084345	3.023581	134.276743	345.254639	2.589807	103.979499	66.856365	-37.278052	89.414188	348.054705	208.595476	63.300064	-0.925170	181.282056	66.632012	313.494633	12.900807	1443.226918	134.577152	148.060731	1400.430422	477.936545	97.192460	1163.665203	80.775544	152.063003	1113.832691	447.806835	240.753738	940.340741	47.845458	243.186909	922.957613	292.367200
1621	16.20000	12.646078	935.885616	313.689717	100.906973	1481.784224	302.395410	231.750778	1569.700595	236.499099	-19.566026	933.342213	240.022872	44.858538	938.429043	387.356234	93.764070	546.907721	95.248900	124.796227	520.302836	342.290613	36.898985	148.916414	56.748959	3.193092	134.564603	345.180402	2.262395	103.914706	67.695976	-37.102003	89.699225	347.926835	208.010097	63.371642	-0.903859	181.434594	66.812649	313.481189	12.084260	1443.219563	134.653799	147.660062	1400.526203	477.819420	98.153055	1163.840617	81.698236	151.949922	1114.178144	445.226482	241.965739	940.931822	50.285441	243.087795	925.510891	286.337517
1622	16.21000	11.821095	936.250078	313.753195	99.841137	1481.841929	302.485427	230.477995	1569.481990	236.263221	-20.520651	933.728357	240.145404	44.163198	938.771822	387.360658	92.432029	547.035446	95.572678	124.551066	520.710217	342.370277	36.460308	148.885714	57.413573	3.362602	134.852464	345.106166	1.934982	103.849913	68.535587	-36.925954	89.984261	347.798965	207.424718	63.443219	-0.882547	181.587133	66.993286	313.467744	11.267713	1443.212207	134.730446	147.259393	1400.621985	477.702295	99.113650	1164.016030	82.620928	151.836842	1114.523597	442.646128	243.177739	941.522903	52.725423	242.988681	928.064168	280.307835
1623	16.22000	10.996113	936.614540	313.816673	98.775301	1481.899634	302.575443	229.205213	1569.263385	236.027344	-21.475276	934.114501	240.267936	43.467857	939.114602	387.365083	91.099989	547.163171	95.896457	124.305905	521.117597	342.449941	36.021631	148.855013	58.078187	3.532113	135.140325	345.031929	1.607570	103.785120	69.375198	-36.749905	90.269297	347.671094	206.839339	63.514797	-0.861236	181.739671	67.173923	313.454300	10.451166	1443.204852	134.807093	146.858724	1400.717767	477.585169	100.074244	1164.191444	83.543621	151.723761	1114.869050	440.065775	244.389739	942.113984	55.165406	242.889567	930.617446	274.278153
1624	16.23000	10.171130	936.979002	313.880151	97.709465	1481.957339	302.665459	227.932431	1569.044780	235.791466	-22.429901	934.500645	240.390467	42.772517	939.457382	387.369507	89.767948	547.290896	96.220235	124.060745	521.524978	342.529605	35.582954	148.824313	58.742801	3.701623	135.428185	344.957693	1.280158	103.720327	70.214809	-36.573857	90.554334	347.543224	206.253960	63.586375	-0.839924	181.892209	67.354561	313.440856	9.634620	1443.197497	134.883740	146.458055	1400.813548	477.468044	101.034839	1164.366857	84.466313	151.610680	1115.214503	437.485421	245.601739	942.705065	57.605389	242.790452	933.170724	268.248471
1625	16.24000	9.346147	937.343463	313.943629	96.643629	1482.015044	302.755476	226.659649	1568.826175	235.555589	-23.384527	934.886790	240.512999	42.077177	939.800161	387.373932	88.435908	547.418621	96.544013	123.815584	521.932358	342.609270	35.144277	148.793613	59.407414	3.871134	135.716046	344.883456	0.952745	103.655534	71.054420	-36.397808	90.839370	347.415354	205.668581	63.657953	-0.818613	182.044747	67.535198	313.427412	8.818073	1443.190141	134.960387	146.057385	1400.909330	477.350919	101.995434	1164.542270	85.389006	151.497600	1115.559956	434.905068	246.813739	943.296146	60.045372	242.691338	935.724001	262.218789
1626	16.25000	8.521165	937.707925	314.007107	95.577793	1482.072749	302.845492	225.386867	1568.607570	235.319711	-24.339152	935.272934	240.635531	41.381837	940.142941	387.378356	87.103867	547.546346	96.867792	123.570424	522.339739	342.688934	34.705600	148.762912	60.072028	4.040644	136.003906	344.809220	0.625333	103.590741	71.894031	-36.221759	91.124406	347.287483	205.083202	63.729531	-0.797301	182.197285	67.715835	313.413968	8.001526	1443.182786	135.037034	145.656716	1401.005111	477.233794	102.956029	1164.717684	86.311698	151.384519	1115.905409	432.324715	248.025739	943.887226	62.485355	242.592224	938.277279	256.189107
